<?xml version="1.0" encoding="UTF-8" standalone="no"?>
<svg
   xmlns:dc="http://purl.org/dc/elements/1.1/"
   xmlns:cc="http://creativecommons.org/ns#"
   xmlns:rdf="http://www.w3.org/1999/02/22-rdf-syntax-ns#"
   xmlns:svg="http://www.w3.org/2000/svg"
   xmlns="http://www.w3.org/2000/svg"
   xmlns:sodipodi="http://sodipodi.sourceforge.net/DTD/sodipodi-0.dtd"
   xmlns:inkscape="http://www.inkscape.org/namespaces/inkscape"
   fill="none"
   height="57.560318"
   viewBox="0 0 208.13864 57.560318"
   width="208.13864"
   version="1.1"
   id="svg27"
   sodipodi:docname="a-logo-2.svg"
   inkscape:version="1.0.1 (3bc2e813f5, 2020-09-07)">
  <metadata
     id="metadata33">
    <rdf:RDF>
      <cc:Work
         rdf:about="">
        <dc:format>image/svg+xml</dc:format>
        <dc:type
           rdf:resource="http://purl.org/dc/dcmitype/StillImage" />
        <dc:title></dc:title>
      </cc:Work>
    </rdf:RDF>
  </metadata>
  <defs
     id="defs31" />
  <sodipodi:namedview
     pagecolor="#ffffff"
     bordercolor="#666666"
     borderopacity="1"
     objecttolerance="10"
     gridtolerance="10"
     guidetolerance="10"
     inkscape:pageopacity="0"
     inkscape:pageshadow="2"
     inkscape:window-width="3440"
     inkscape:window-height="1377"
     id="namedview29"
     showgrid="false"
     inkscape:pagecheckerboard="true"
     inkscape:zoom="10.047393"
     inkscape:cx="-33.318177"
     inkscape:cy="-0.5039726"
     inkscape:window-x="-8"
     inkscape:window-y="-8"
     inkscape:window-maximized="1"
     inkscape:current-layer="text880"
     inkscape:document-rotation="0"
     fit-margin-top="0"
     fit-margin-left="0"
     fit-margin-right="0"
     fit-margin-bottom="0" />
  <clipPath
     id="a">
    <path
       d="M 0,0 H 132.512 V 55.588 H 0 Z"
       id="path2" />
  </clipPath>
  <g
     fill="#2266dc"
     id="g25"
     transform="translate(-2.0928801,2.2129548)">
    <text
       xml:space="preserve"
       style="font-style:normal;font-weight:normal;font-size:40px;line-height:1.25;font-family:sans-serif;fill:#000000;fill-opacity:1;stroke:none"
       x="63.100945"
       y="44.986794"
       id="text876"><tspan
         sodipodi:role="line"
         id="tspan874"
         x="63.100945"
         y="44.986794" /></text>
    <g
       aria-label="[A]psanta"
       id="text880"
       style="font-style:normal;font-weight:normal;font-size:40px;line-height:1.25;font-family:sans-serif;fill:#000000;fill-opacity:1;stroke:none">
      <path
         id="path968"
         style="opacity:1;fill:#286ade;fill-opacity:1;stroke-width:1.22142"
         d="m 11.730696,22.674216 c -0.139955,0.458035 -0.311717,0.776114 -0.515289,0.954239 -0.20357,0.178125 -0.508927,0.267188 -0.916069,0.267188 H 2.0928801 v 0.477119 c 0.445312,0.114509 0.7570298,0.273548 0.9351544,0.47712 0.1908475,0.203569 0.2862721,0.489841 0.2862721,0.858814 v 26.642357 c 0,0.368972 -0.095425,0.648882 -0.2862721,0.839731 -0.1781246,0.20357 -0.4898424,0.36261 -0.9351544,0.477119 v 0.47712 l 8.2064579,-0.01909 c 0.394418,0 0.699775,0.08906 0.916069,0.267187 0.216295,0.190847 0.388058,0.508927 0.515289,0.954239 h 0.515289 v -5.114722 h -0.515289 c -0.139955,0.496205 -0.324441,0.827007 -0.553458,0.992409 -0.216294,0.1654 -0.591629,0.248102 -1.126003,0.248102 H 7.4938735 V 26.548427 h 2.8054645 c 0.407142,0 0.712499,0.09542 0.916069,0.286272 0.216295,0.178124 0.388058,0.496204 0.515289,0.954239 h 0.515289 v -5.114722 z m 32.940335,0 v 5.114722 h 0.515289 c 0.127232,-0.458035 0.292634,-0.776115 0.496204,-0.954239 0.216295,-0.190848 0.528013,-0.286272 0.935154,-0.286272 h 2.805464 v 24.924726 h -2.557361 c -0.534374,0 -0.91607,-0.0827 -1.145088,-0.248102 C 45.5044,51.059649 45.326276,50.728847 45.18632,50.232642 h -0.515289 v 5.114722 h 0.515289 c 0.127232,-0.445312 0.298996,-0.763392 0.515289,-0.954239 0.216295,-0.178126 0.521652,-0.267187 0.916069,-0.267187 l 8.206457,0.01909 v -0.47712 C 54.378824,53.540671 54.060744,53.381631 53.869896,53.190784 53.691772,52.999935 53.602709,52.720025 53.602709,52.351053 V 25.708696 c 0,-0.368973 0.08906,-0.655245 0.267187,-0.858814 0.190848,-0.203572 0.508928,-0.362611 0.954239,-0.47712 v -0.477119 h -8.206457 c -0.407141,0 -0.712497,-0.08906 -0.916069,-0.267188 -0.20357,-0.178125 -0.375333,-0.496204 -0.515289,-0.954239 z m -20.955092,3.320752 v 0.610713 c 0.737946,0.254464 1.106918,0.674329 1.106918,1.259596 0,0.381696 -0.152679,0.890622 -0.458034,1.526783 l -9.580562,20.019937 c -0.343526,0.737944 -0.648882,1.234148 -0.916069,1.488613 -0.267187,0.254463 -0.655244,0.432587 -1.164172,0.534373 v 0.610713 h 8.626321 v -0.610713 c -0.852452,-0.216295 -1.278679,-0.604351 -1.278679,-1.164171 0,-0.292634 0.120871,-0.693415 0.362611,-1.202342 l 1.755799,-3.664278 h 11.832565 l 1.79397,3.664278 c 0.254464,0.52165 0.381696,0.91607 0.381696,1.183257 0,0.648883 -0.419866,1.0433 -1.259596,1.183256 v 0.610713 h 9.580561 V 51.434983 C 43.964894,51.333197 43.538668,51.129626 43.220587,50.824271 42.902508,50.50619 42.533535,49.920923 42.11367,49.06847 L 32.189583,28.991279 c -0.241739,-0.470759 -0.362611,-0.890624 -0.362611,-1.259596 0,-0.534374 0.375335,-0.909708 1.126002,-1.126002 v -0.610713 z m 139.719691,3.454346 v 6.336148 h 0.5153 c 0.12722,-0.458035 0.29262,-0.776115 0.4962,-0.954239 0.21629,-0.190848 0.52801,-0.286273 0.93514,-0.286273 h 6.29799 v 15.554098 c 0,0.394419 -0.0954,0.699775 -0.28627,0.91607 -0.17813,0.216294 -0.48984,0.381696 -0.93516,0.496204 v 0.534374 h 7.55757 v -0.515289 c -0.45803,-0.139956 -0.77611,-0.311719 -0.95423,-0.515289 -0.17812,-0.216295 -0.26719,-0.521651 -0.26719,-0.91607 V 34.54495 h 6.29798 c 0.40713,0 0.71249,0.09542 0.91606,0.286273 0.21631,0.178124 0.38806,0.496204 0.5153,0.954239 h 0.51528 v -6.336148 h -0.51528 c -0.12724,0.458035 -0.29899,0.776114 -0.5153,0.954239 -0.20357,0.178125 -0.50893,0.267187 -0.91606,0.267187 h -17.71069 c -0.40713,0 -0.71885,-0.08906 -0.93514,-0.267187 -0.20358,-0.190847 -0.36262,-0.508928 -0.47713,-0.954239 z m -69.086907,0.763392 c -2.697317,0 -4.962047,0.559819 -6.794182,1.67946 -2.010263,1.234149 -3.015399,3.021757 -3.015399,5.362824 0,1.043301 0.229017,2.003902 0.68705,2.881802 0.458034,0.8779 1.094196,1.571313 1.908484,2.080241 0.636152,0.394418 1.380467,0.693414 2.232916,0.896985 0.852458,0.203571 2.086602,0.368972 3.702453,0.496205 l 2.996306,0.248102 c 1.590398,0.139954 2.690958,0.311717 3.301673,0.515289 0.916066,0.305356 1.374106,0.846092 1.374106,1.622206 0,0.966962 -0.66161,1.666738 -1.984821,2.099326 -1.068746,0.356249 -2.277449,0.534374 -3.626111,0.534374 -1.52678,0 -3.072648,-0.203571 -4.637606,-0.610713 -1.564949,-0.419865 -2.665509,-0.909708 -3.301661,-1.469528 -0.254467,-0.229017 -0.381705,-0.508928 -0.381705,-0.839731 V 45.55687 l -0.477118,-0.190847 -2.194746,5.22923 0.477119,0.190848 c 0.216296,-0.305357 0.451669,-0.458035 0.706135,-0.458035 0.139958,0 0.311721,0.04453 0.515288,0.133593 3.002679,1.361381 6.113493,2.042072 9.332464,2.042072 3.193517,0 5.725432,-0.604352 7.595742,-1.813054 1.95937,-1.259596 2.93906,-2.977227 2.93906,-5.152891 0,-1.19598 -0.31172,-2.27109 -0.93516,-3.225329 -0.4962,-0.763391 -1.126,-1.374104 -1.88939,-1.832138 -1.3741,-0.814285 -3.378006,-1.323214 -6.011701,-1.526784 L 93.85252,38.724518 c -1.895758,-0.152678 -3.174436,-0.35625 -3.836047,-0.610713 -0.661601,-0.267187 -0.992407,-0.712499 -0.992407,-1.335935 0,-0.941516 0.687051,-1.660375 2.061153,-2.15658 0.954246,-0.343526 2.048445,-0.515289 3.282589,-0.515289 1.450441,0 2.881806,0.209932 4.294077,0.629798 1.412265,0.419865 2.481015,0.954239 3.206235,1.603121 0.26719,0.24174 0.40079,0.572544 0.40079,0.992409 l 0.45803,0.248103 2.57644,-4.981129 -0.45803,-0.248102 c -0.31807,0.279909 -0.57891,0.419865 -0.78247,0.419865 -0.20357,0 -0.56618,-0.120871 -1.08784,-0.362611 -1.7558,-0.814284 -3.269846,-1.380466 -4.542172,-1.698545 -1.259593,-0.330804 -2.620974,-0.496204 -4.084145,-0.496204 z M 59.270889,30.67074 v 0.534374 c 0.458035,0.139954 0.776116,0.311717 0.954239,0.515289 0.178126,0.20357 0.267188,0.502566 0.267188,0.896984 v 17.481661 c 0,0.394419 -0.09542,0.699775 -0.286272,0.91607 -0.178124,0.216294 -0.489842,0.381696 -0.935155,0.496204 v 0.534374 h 7.557575 V 51.530407 C 66.370429,51.390451 66.05235,51.218688 65.874225,51.015118 65.6961,50.798823 65.607037,50.493467 65.607037,50.099048 v -6.832352 h 7.595744 c 2.98995,0 5.210148,-0.515289 6.660589,-1.545867 1.45044,-1.043302 2.175661,-2.627339 2.175661,-4.752111 0,-1.106917 -0.229017,-2.105688 -0.687051,-2.996311 -0.458034,-0.890623 -1.094186,-1.577676 -1.908475,-2.061156 -1.399551,-0.827008 -3.479792,-1.240511 -6.240724,-1.240511 z m 56.853571,0 v 0.534374 c 0.71249,0.292632 1.06875,0.699774 1.06875,1.221426 0,0.445311 -0.14632,0.966962 -0.43896,1.564952 l -7.80566,15.8022 c -0.31809,0.636159 -0.598,1.062385 -0.83974,1.27868 -0.22902,0.216294 -0.58527,0.362611 -1.06875,0.43895 v 0.534374 h 7.86294 v -0.534374 c -0.81429,-0.165401 -1.22143,-0.553458 -1.22143,-1.164171 0,-0.318081 0.13359,-0.757031 0.40077,-1.31685 l 1.10692,-2.328344 h 9.82867 l 1.18326,2.19475 c 0.31807,0.585266 0.47711,1.075109 0.47711,1.469529 0,0.636158 -0.4135,1.024215 -1.2405,1.164171 v 0.515289 h 8.72173 v -0.515289 c -0.52164,-0.101786 -0.9097,-0.273549 -1.16417,-0.515289 -0.25446,-0.254465 -0.60434,-0.80156 -1.04966,-1.641291 l -8.09195,-15.325081 c -0.31807,-0.610713 -0.47712,-1.126002 -0.47712,-1.545867 0,-0.585267 0.34989,-1.017855 1.04967,-1.297765 V 30.67074 Z m 19.81001,0 v 0.534374 c 0.45803,0.139954 0.77611,0.311717 0.95423,0.515289 0.17813,0.20357 0.26719,0.502566 0.26719,0.896984 v 17.481661 c 0,0.394419 -0.0954,0.699775 -0.28627,0.91607 -0.17813,0.216294 -0.48985,0.381696 -0.93515,0.496204 v 0.534374 h 7.09954 v -0.515289 c -0.44532,-0.127232 -0.76341,-0.298995 -0.95425,-0.515289 -0.17812,-0.216295 -0.26718,-0.521651 -0.26718,-0.91607 V 37.961127 l 11.33636,11.183682 c 0.54709,0.559821 0.89698,0.935155 1.04966,1.126003 0.15267,0.190847 0.22901,0.375333 0.22901,0.553459 0,0.356248 -0.27991,0.591628 -0.83973,0.706136 v 0.515289 h 7.65301 v -0.515289 c -0.45804,-0.139956 -0.77612,-0.311719 -0.95424,-0.515289 -0.17814,-0.216295 -0.26719,-0.521651 -0.26719,-0.91607 V 32.617387 c 0,-0.394418 0.0891,-0.693414 0.26719,-0.896984 0.17812,-0.216295 0.4962,-0.388058 0.95424,-0.515289 V 30.67074 h -7.09954 v 0.534374 c 0.45803,0.127231 0.7761,0.298994 0.95424,0.515289 0.17812,0.20357 0.26718,0.502566 0.26718,0.896984 V 44.392699 L 143.91191,33.018168 c -0.40716,-0.407143 -0.61071,-0.763391 -0.61071,-1.068748 0,-0.356249 0.27989,-0.604352 0.83972,-0.744306 V 30.67074 Z m 56.26194,0 v 0.534374 c 0.71249,0.292632 1.06874,0.699774 1.06874,1.221426 0,0.445311 -0.14631,0.966962 -0.43895,1.564952 l -7.80567,15.8022 c -0.31809,0.636159 -0.59801,1.062385 -0.83973,1.27868 -0.22902,0.216294 -0.58528,0.362611 -1.06875,0.43895 v 0.534374 h 7.86293 v -0.534374 c -0.81429,-0.165401 -1.22143,-0.553458 -1.22143,-1.164171 0,-0.318081 0.13359,-0.757031 0.40078,-1.31685 l 1.10692,-2.328344 h 9.82866 l 1.18326,2.19475 c 0.31807,0.585266 0.47711,1.075109 0.47711,1.469529 0,0.636158 -0.4135,1.024215 -1.2405,1.164171 v 0.515289 h 8.72174 v -0.515289 c -0.52165,-0.101786 -0.90971,-0.273549 -1.16417,-0.515289 -0.25447,-0.254465 -0.60435,-0.80156 -1.04967,-1.641291 l -8.09194,-15.325081 c -0.31808,-0.610713 -0.47712,-1.126002 -0.47712,-1.545867 0,-0.585267 0.34989,-1.017855 1.04966,-1.297765 V 30.67074 Z m -164.052801,1.889393 4.217737,9.275204 h -8.492728 z m 37.463428,1.984817 h 7.290387 c 1.348659,0 2.277451,0.127232 2.786379,0.381696 0.76339,0.368972 1.145083,1.049663 1.145083,2.042072 0,0.992409 -0.381693,1.673098 -1.145083,2.042072 -0.52165,0.254463 -1.450444,0.381695 -2.786379,0.381695 h -7.290387 z m 54.372553,2.309259 3.49251,6.851437 h -6.81327 z m 76.07194,0 3.49251,6.851437 h -6.81326 z" />
      <path
         d="M 49.035388,9.2275442 C 48.011105,6.0221597 45.968034,3.1417566 43.261797,1.0968294 c -2.865553,-2.1652479 -6.2716,-3.3097842 -9.850019,-3.3097842 -4.361922,0 -8.473983,1.70987384 -11.578753,4.8146438 -3.045074,3.045147 -4.747237,7.0594481 -4.811576,11.327821 -1.202235,0.391036 -2.073919,1.521575 -2.073919,2.852414 v 4.215817 c 0,1.653751 1.345407,2.999158 2.999091,2.999158 H 39.08361 c 1.653683,0 2.999086,-1.345407 2.999086,-2.999158 v -4.215817 c 0,-1.204731 -0.71437,-2.245153 -1.741508,-2.721663 0.268635,-1.548711 1.527929,-2.761153 3.099487,-2.958956 -0.319341,0.599332 -0.501072,1.282639 -0.501072,2.007866 0,2.362479 1.922032,4.284512 4.284507,4.284512 2.362551,0 4.284584,-1.922033 4.284584,-4.284512 0,-1.715448 -1.013786,-3.1978147 -2.473306,-3.8816268 z M 39.940444,20.997813 c 0,0.472512 -0.384396,0.856903 -0.856834,0.856903 H 17.946621 c -0.472444,0 -0.856835,-0.384391 -0.856835,-0.856903 v -4.215816 c 0,-0.472439 0.384391,-0.856835 0.856835,-0.856835 H 39.08361 c 0.472438,0 0.856834,0.384396 0.856834,0.856835 z M 43.893262,8.9296983 c -2.865199,0 -5.247031,2.1072687 -5.678264,4.8532137 H 19.16642 c 0.211367,-7.6749196 6.520165,-13.85347084 14.245358,-13.85347084 5.793869,0 11.05682,3.61734294 13.216499,8.93763464 -0.383319,0.053553 -0.750573,0.1576005 -1.094689,0.3059151 -0.02443,-0.00891 -0.04877,-0.017983 -0.07427,-0.025249 -0.508138,-0.1446697 -1.035063,-0.218008 -1.566057,-0.218008 z m 3.330848,6.3217287 c -1.18124,0 -2.142256,-0.961017 -2.142256,-2.142256 0,-1.18124 0.961016,-2.142256 2.142256,-2.142256 1.181312,0 2.142328,0.961016 2.142328,2.142256 0,1.181239 -0.961016,2.142256 -2.142328,2.142256 z"
         id="path2-6"
         style="stroke-width:0.0714084;fill:#286ade;fill-opacity:1" />
    </g>
  </g>
</svg>
