<svg id="Layer_1" enable-background="new 0 0 512 512" height="512" viewBox="0 0 512 512" width="512" xmlns="http://www.w3.org/2000/svg"><path d="m477.364 232.691c-14.344-44.888-42.955-85.225-80.853-113.862-40.129-30.322-87.827-46.35-137.939-46.35-61.084 0-118.669 23.945-162.148 67.424-42.643 42.644-66.48 98.86-67.381 158.634-16.836 5.476-29.043 21.308-29.043 39.945v59.038c0 23.159 18.841 42 41.999 42h296.001c23.158 0 41.999-18.841 41.999-42v-59.038c0-16.871-10.004-31.441-24.388-38.114 3.762-21.688 21.397-38.667 43.405-41.437-4.472 8.393-7.017 17.962-7.017 28.118 0 33.084 26.916 60 60 60 33.085 0 60.001-26.916 60.001-60 0-24.023-14.197-44.782-34.636-54.358zm-127.365 164.83c0 6.617-5.383 12-11.999 12h-296.001c-6.616 0-11.999-5.383-11.999-12v-59.038c0-6.616 5.383-11.999 11.999-11.999h296.001c6.616 0 11.999 5.383 11.999 11.999zm55.355-169.001c-40.124 0-73.479 29.51-79.518 67.964h-266.755c2.96-107.479 91.308-194.003 199.491-194.003 81.137 0 154.839 50.657 185.083 125.162-5.368.75-10.511 2.207-15.33 4.284-.342-.125-.683-.252-1.04-.354-7.116-2.026-14.495-3.053-21.931-3.053zm46.645 88.529c-16.542 0-30-13.458-30-30s13.458-30 30-30c16.543 0 30.001 13.458 30.001 30s-13.458 30-30.001 30z"/></svg>